<svg width="519" height="132" viewBox="0 0 519 132" fill="none" xmlns="http://www.w3.org/2000/svg">
<g filter="url(#filter0_d)">
<rect x="80.1285" width="359.786" height="96.4444" fill="black"/>
<path fill-rule="evenodd" clip-rule="evenodd" d="M515 48.2222H380.471V124H514.364L485.629 86.4592L515 51.1189V48.2222Z" fill="black"/>
<path d="M439.914 96.4445H380.471V124L439.914 96.4445Z" fill="#CFCFCF"/>
<path fill-rule="evenodd" clip-rule="evenodd" d="M4.00002 48.2222H138.529V124H4.63614L33.3708 86.4592L4.00002 51.119V48.2222Z" fill="black"/>
<path d="M79.0857 96.4445H138.529V124L79.0857 96.4445Z" fill="#CFCFCF"/>
<path d="M200.612 13.4531L212.233 42.457L223.854 13.4531H229.934V49H225.246V35.1572L225.686 20.2158L214.016 49H210.427L198.781 20.2891L199.245 35.1572V49H194.558V13.4531H200.612ZM258.303 32.5693H242.897V45.167H260.793V49H238.21V13.4531H260.549V17.3105H242.897V28.7363H258.303V32.5693ZM293.947 49H289.235L271.34 21.6074V49H266.628V13.4531H271.34L289.284 40.9678V13.4531H293.947V49ZM327.297 13.4531V37.623C327.281 40.9759 326.223 43.7184 324.123 45.8506C322.04 47.9827 319.208 49.179 315.627 49.4395L314.382 49.4883C310.492 49.4883 307.391 48.4385 305.08 46.3389C302.769 44.2393 301.597 41.3503 301.564 37.6719V13.4531H306.203V37.5254C306.203 40.097 306.911 42.099 308.327 43.5312C309.743 44.9473 311.761 45.6553 314.382 45.6553C317.035 45.6553 319.061 44.9473 320.461 43.5312C321.877 42.1152 322.585 40.1214 322.585 37.5498V13.4531H327.297Z" fill="white"/>
<path d="M172.624 67.6445C172.253 67.5762 171.857 67.542 171.438 67.542C170.344 67.542 169.416 67.8496 168.654 68.4648C167.902 69.0703 167.365 69.9541 167.043 71.1162V82H165.3V66.1504H167.014L167.043 68.6699C167.971 66.7949 169.46 65.8574 171.511 65.8574C171.999 65.8574 172.385 65.9209 172.668 66.0479L172.624 67.6445ZM185.752 82.293C184.404 82.293 183.184 81.9609 182.09 81.2969C181.006 80.6328 180.161 79.71 179.556 78.5283C178.95 77.3369 178.647 76.0039 178.647 74.5293V73.8994C178.647 72.376 178.94 71.0039 179.526 69.7832C180.122 68.5625 180.947 67.6055 182.002 66.9121C183.057 66.209 184.199 65.8574 185.43 65.8574C187.354 65.8574 188.877 66.5166 190 67.835C191.133 69.1436 191.699 70.9355 191.699 73.2109V74.1924H180.391V74.5293C180.391 76.3262 180.903 77.8252 181.929 79.0264C182.964 80.2178 184.263 80.8135 185.825 80.8135C186.763 80.8135 187.588 80.6426 188.301 80.3008C189.023 79.959 189.678 79.4121 190.264 78.6602L191.362 79.4951C190.073 81.3604 188.203 82.293 185.752 82.293ZM185.43 67.3516C184.111 67.3516 182.998 67.835 182.09 68.8018C181.191 69.7686 180.645 71.0674 180.449 72.6982H189.956V72.5078C189.907 70.9844 189.473 69.7441 188.652 68.7871C187.832 67.8301 186.758 67.3516 185.43 67.3516ZM209.104 77.9717C209.104 77.1025 208.753 76.4043 208.05 75.877C207.356 75.3496 206.307 74.9395 204.9 74.6465C203.494 74.3438 202.4 74.002 201.619 73.6211C200.848 73.2305 200.271 72.7568 199.891 72.2002C199.52 71.6436 199.334 70.9697 199.334 70.1787C199.334 68.9287 199.856 67.8984 200.901 67.0879C201.946 66.2676 203.284 65.8574 204.915 65.8574C206.683 65.8574 208.099 66.2969 209.163 67.1758C210.237 68.0449 210.774 69.1826 210.774 70.5889H209.017C209.017 69.6611 208.626 68.8896 207.845 68.2744C207.073 67.6592 206.097 67.3516 204.915 67.3516C203.763 67.3516 202.835 67.6104 202.132 68.1279C201.438 68.6357 201.092 69.2998 201.092 70.1201C201.092 70.9111 201.38 71.5264 201.956 71.9658C202.542 72.3955 203.602 72.791 205.135 73.1523C206.678 73.5137 207.83 73.8994 208.592 74.3096C209.363 74.7197 209.935 75.2129 210.306 75.7891C210.677 76.3652 210.862 77.0635 210.862 77.8838C210.862 79.2217 210.32 80.291 209.236 81.0918C208.162 81.8926 206.756 82.293 205.018 82.293C203.172 82.293 201.673 81.8486 200.521 80.96C199.378 80.0615 198.807 78.9287 198.807 77.5615H200.564C200.633 78.5869 201.062 79.3877 201.854 79.9639C202.654 80.5303 203.709 80.8135 205.018 80.8135C206.238 80.8135 207.225 80.5449 207.977 80.0078C208.729 79.4707 209.104 78.792 209.104 77.9717ZM222.042 62.0928V66.1504H225.323V67.5859H222.042V78.1475C222.042 79.0264 222.198 79.6807 222.511 80.1104C222.833 80.54 223.365 80.7549 224.107 80.7549C224.4 80.7549 224.874 80.7061 225.528 80.6084L225.602 82.0439C225.143 82.21 224.518 82.293 223.727 82.293C222.525 82.293 221.651 81.9463 221.104 81.2529C220.558 80.5498 220.284 79.5195 220.284 78.1621V67.5859H217.369V66.1504H220.284V62.0928H222.042ZM243.461 82C243.285 81.502 243.173 80.7646 243.124 79.7881C242.509 80.5889 241.723 81.209 240.766 81.6484C239.818 82.0781 238.812 82.293 237.748 82.293C236.225 82.293 234.989 81.8682 234.042 81.0186C233.104 80.1689 232.636 79.0947 232.636 77.7959C232.636 76.2529 233.275 75.0322 234.555 74.1338C235.844 73.2354 237.636 72.7861 239.931 72.7861H243.109V70.9844C243.109 69.8516 242.758 68.9629 242.055 68.3184C241.361 67.6641 240.346 67.3369 239.008 67.3369C237.787 67.3369 236.776 67.6494 235.976 68.2744C235.175 68.8994 234.774 69.6514 234.774 70.5303L233.017 70.5156C233.017 69.2559 233.603 68.167 234.774 67.249C235.946 66.3213 237.387 65.8574 239.096 65.8574C240.863 65.8574 242.255 66.3018 243.271 67.1904C244.296 68.0693 244.823 69.2998 244.853 70.8818V78.3818C244.853 79.915 245.014 81.0625 245.336 81.8242V82H243.461ZM237.953 80.7402C239.125 80.7402 240.17 80.457 241.088 79.8906C242.016 79.3242 242.689 78.5674 243.109 77.6201V74.1338H239.975C238.227 74.1533 236.859 74.4756 235.873 75.1006C234.887 75.7158 234.394 76.5654 234.394 77.6494C234.394 78.5381 234.721 79.2754 235.375 79.8613C236.039 80.4473 236.898 80.7402 237.953 80.7402ZM264.235 79.9932C263.181 81.5264 261.496 82.293 259.182 82.293C257.492 82.293 256.208 81.8047 255.329 80.8281C254.45 79.8418 254.001 78.3867 253.981 76.4629V66.1504H255.725V76.2432C255.725 79.2607 256.945 80.7695 259.387 80.7695C261.926 80.7695 263.532 79.7197 264.206 77.6201V66.1504H265.964V82H264.265L264.235 79.9932ZM282.358 67.6445C281.987 67.5762 281.592 67.542 281.172 67.542C280.078 67.542 279.15 67.8496 278.389 68.4648C277.637 69.0703 277.1 69.9541 276.777 71.1162V82H275.034V66.1504H276.748L276.777 68.6699C277.705 66.7949 279.194 65.8574 281.245 65.8574C281.733 65.8574 282.119 65.9209 282.402 66.0479L282.358 67.6445ZM299.061 82C298.885 81.502 298.772 80.7646 298.724 79.7881C298.108 80.5889 297.322 81.209 296.365 81.6484C295.418 82.0781 294.412 82.293 293.348 82.293C291.824 82.293 290.589 81.8682 289.642 81.0186C288.704 80.1689 288.235 79.0947 288.235 77.7959C288.235 76.2529 288.875 75.0322 290.154 74.1338C291.443 73.2354 293.235 72.7861 295.53 72.7861H298.709V70.9844C298.709 69.8516 298.357 68.9629 297.654 68.3184C296.961 67.6641 295.945 67.3369 294.607 67.3369C293.387 67.3369 292.376 67.6494 291.575 68.2744C290.774 68.8994 290.374 69.6514 290.374 70.5303L288.616 70.5156C288.616 69.2559 289.202 68.167 290.374 67.249C291.546 66.3213 292.986 65.8574 294.695 65.8574C296.463 65.8574 297.854 66.3018 298.87 67.1904C299.896 68.0693 300.423 69.2998 300.452 70.8818V78.3818C300.452 79.915 300.613 81.0625 300.936 81.8242V82H299.061ZM293.553 80.7402C294.725 80.7402 295.77 80.457 296.688 79.8906C297.615 79.3242 298.289 78.5674 298.709 77.6201V74.1338H295.574C293.826 74.1533 292.459 74.4756 291.473 75.1006C290.486 75.7158 289.993 76.5654 289.993 77.6494C289.993 78.5381 290.32 79.2754 290.975 79.8613C291.639 80.4473 292.498 80.7402 293.553 80.7402ZM311.31 66.1504L311.368 68.8604C311.964 67.8838 312.706 67.1416 313.595 66.6338C314.483 66.1162 315.465 65.8574 316.539 65.8574C318.238 65.8574 319.503 66.3359 320.333 67.293C321.163 68.25 321.583 69.6855 321.593 71.5996V82H319.85V71.585C319.84 70.1689 319.537 69.1143 318.941 68.4209C318.355 67.7275 317.413 67.3809 316.114 67.3809C315.03 67.3809 314.068 67.7227 313.229 68.4062C312.398 69.0801 311.783 69.9932 311.383 71.1455V82H309.64V66.1504H311.31ZM333.358 62.0928V66.1504H336.64V67.5859H333.358V78.1475C333.358 79.0264 333.515 79.6807 333.827 80.1104C334.149 80.54 334.682 80.7549 335.424 80.7549C335.717 80.7549 336.19 80.7061 336.845 80.6084L336.918 82.0439C336.459 82.21 335.834 82.293 335.043 82.293C333.842 82.293 332.968 81.9463 332.421 81.2529C331.874 80.5498 331.601 79.5195 331.601 78.1621V67.5859H328.686V66.1504H331.601V62.0928H333.358ZM350.91 82.293C349.562 82.293 348.342 81.9609 347.248 81.2969C346.164 80.6328 345.319 79.71 344.714 78.5283C344.108 77.3369 343.806 76.0039 343.806 74.5293V73.8994C343.806 72.376 344.099 71.0039 344.685 69.7832C345.28 68.5625 346.105 67.6055 347.16 66.9121C348.215 66.209 349.357 65.8574 350.588 65.8574C352.512 65.8574 354.035 66.5166 355.158 67.835C356.291 69.1436 356.857 70.9355 356.857 73.2109V74.1924H345.549V74.5293C345.549 76.3262 346.062 77.8252 347.087 79.0264C348.122 80.2178 349.421 80.8135 350.983 80.8135C351.921 80.8135 352.746 80.6426 353.459 80.3008C354.182 79.959 354.836 79.4121 355.422 78.6602L356.521 79.4951C355.231 81.3604 353.361 82.293 350.91 82.293ZM350.588 67.3516C349.27 67.3516 348.156 67.835 347.248 68.8018C346.35 69.7686 345.803 71.0674 345.607 72.6982H355.114V72.5078C355.065 70.9844 354.631 69.7441 353.811 68.7871C352.99 67.8301 351.916 67.3516 350.588 67.3516Z" fill="white"/>
</g>
<defs>
<filter id="filter0_d" x="0" y="0" width="519" height="132" filterUnits="userSpaceOnUse" color-interpolation-filters="sRGB">
<feFlood flood-opacity="0" result="BackgroundImageFix"/>
<feColorMatrix in="SourceAlpha" type="matrix" values="0 0 0 0 0 0 0 0 0 0 0 0 0 0 0 0 0 0 127 0"/>
<feOffset dy="4"/>
<feGaussianBlur stdDeviation="2"/>
<feColorMatrix type="matrix" values="0 0 0 0 0 0 0 0 0 0 0 0 0 0 0 0 0 0 0.25 0"/>
<feBlend mode="normal" in2="BackgroundImageFix" result="effect1_dropShadow"/>
<feBlend mode="normal" in="SourceGraphic" in2="effect1_dropShadow" result="shape"/>
</filter>
</defs>
</svg>
